{
    "accessors" : [
        {
            "bufferView" : 0,
            "componentType" : 5123,
            "count" : 17664,
            "max" : [
                3328
            ],
            "min" : [
                0
            ],
            "type" : "SCALAR"
        },
        {
            "bufferView" : 1,
            "componentType" : 5126,
            "count" : 3329,
            "max" : [
                1.0,
                0.9226109981536865,
                1.0
            ],
            "min" : [
                -1.002670407295227,
                -0.014889001846313477,
                -1.0244965553283691
            ],
            "type" : "VEC3"
        },
        {
            "bufferView" : 2,
            "componentType" : 5126,
            "count" : 3329,
            "max" : [
                1.0,
                1.0,
                1.0
            ],
            "min" : [
                0.0,
                -0.0,
                -9.5367431640625e-07
            ],
            "type" : "VEC3"
        }
    ],
    "asset" : {
        "generator" : "Khronos Blender glTF 2.0 exporter",
        "version" : "2.0"
    },
    "bufferViews" : [
        {
            "buffer" : 0,
            "byteLength" : 35328,
            "byteOffset" : 0,
            "target" : 34963
        },
        {
            "buffer" : 0,
            "byteLength" : 39948,
            "byteOffset" : 35328,
            "target" : 34962
        },
        {
            "buffer" : 0,
            "byteLength" : 39948,
            "byteOffset" : 75276,
            "target" : 34962
        }
    ],
    "buffers" : [
        {
            "byteLength" : 115224,
            "uri" : "room_basic.bin"
        }
    ],
    "images" : [
        {
            "name" : "wood",
            "uri" : "wood.jpg"
        }
    ],
    "materials" : [
        {
            "emissiveFactor" : [
                0.016000001072883574,
                0.0013186117711973533,
                8.759953817130163e-05
            ],
            "name" : "Material.002",
            "pbrMetallicRoughness" : {
                "baseColorFactor" : [
                    0.640000066757203,
                    0.05274447281277883,
                    0.003503981657385552,
                    1.0
                ],
                "baseColorTexture" : {
                    "index" : 0
                },
                "metallicFactor" : 0.0
            }
        }
    ],
    "meshes" : [
        {
            "name" : "Plane",
            "primitives" : [
                {
                    "attributes" : {
                        "NORMAL" : 2,
                        "POSITION" : 1
                    },
                    "indices" : 0,
                    "material" : 0
                }
            ]
        }
    ],
    "nodes" : [
        {
            "name" : "Camera",
            "rotation" : [
                0.483536034822464,
                0.33687159419059753,
                -0.20870360732078552,
                0.7804827094078064
            ],
            "translation" : [
                7.481131553649902,
                5.34366512298584,
                6.5076398849487305
            ]
        },
        {
            "name" : "Lamp",
            "rotation" : [
                0.16907575726509094,
                0.7558802962303162,
                -0.27217137813568115,
                0.570947527885437
            ],
            "scale" : [
                1.0,
                1.0,
                0.9999999403953552
            ],
            "translation" : [
                4.076245307922363,
                5.903861999511719,
                -1.0054539442062378
            ]
        },
        {
            "mesh" : 0,
            "name" : "Plane",
            "scale" : [
                7.951448917388916,
                7.951448917388916,
                7.951448917388916
            ]
        }
    ],
    "samplers" : [
        {}
    ],
    "scene" : 0,
    "scenes" : [
        {
            "name" : "Scene",
            "nodes" : [
                2,
                1,
                0
            ]
        }
    ],
    "textures" : [
        {
            "sampler" : 0,
            "source" : 0
        }
    ]
}
